<svg width="60" height="60" viewBox="0 0 60 60" fill="none" xmlns="http://www.w3.org/2000/svg">
<path d="M12.8325 10.1555L10.3769 7.32279C9.37034 8.197 8.42232 9.13637 7.53896 10.1349L10.3507 12.6171C11.1235 11.7433 11.9526 10.921 12.8325 10.1555Z" fill="#D31218"/>
<path d="M8.21003 15.3842L5.0965 13.2938C4.35409 14.4019 3.68595 15.5581 3.09642 16.7546L6.45926 18.41C6.97521 17.3638 7.56017 16.353 8.21003 15.3842Z" fill="#D31218"/>
<path d="M39.5429 1.559C36.4717 0.528009 33.2538 0.00155697 30.0141 3.37431e-05C24.1674 -0.00875412 18.4469 1.69914 13.5617 4.91186L15.6236 8.04456C19.8965 5.23455 24.9003 3.74109 30.0141 3.74952C44.4942 3.76311 56.2216 15.514 56.2081 29.9961C56.1945 44.4781 44.4452 56.2071 29.9651 56.1936C15.485 56.1802 3.75753 44.429 3.77112 29.947C3.77381 27.1243 4.23213 24.3205 5.12837 21.6438L1.56684 20.4515C-3.70353 36.1569 4.75382 53.1617 20.457 58.4329C36.1602 63.7041 53.1626 55.2456 58.4331 39.5403C63.7036 23.835 55.2461 6.8302 39.5429 1.559Z" fill="#D31218"/>
<path d="M30.0141 14.998C34.2727 15.0069 38.327 16.8245 41.1673 19.9979L43.9584 17.497C37.0564 9.77999 25.2061 9.11996 17.4902 16.023C9.77417 22.9259 9.11424 34.7778 16.0163 42.4949C22.9184 50.2119 34.7686 50.8718 42.4846 43.9689C43.0028 43.5052 43.4948 43.0131 43.9584 42.4949L41.1673 39.994C35.6464 46.1682 26.1661 46.697 19.9928 41.1753C13.8194 35.6536 13.2907 26.1721 18.8117 19.9979C21.6623 16.81 25.738 14.991 30.0141 14.998Z" fill="#D31218"/>
</svg>
