<svg width="64" height="64" viewBox="0 0 64 64" fill="none" xmlns="http://www.w3.org/2000/svg">
<path d="M16.1294 0C15.439 0 14.8792 0.559875 14.8792 1.25013C14.8792 1.9405 15.439 2.50025 16.1294 2.50025C23.1911 2.50025 28.9363 8.39437 28.9363 15.6396C28.9363 16.33 29.4962 16.8897 30.1864 16.8897C30.8768 16.8897 31.4366 16.3299 31.4366 15.6396C31.4367 7.01587 24.5698 0 16.1294 0Z" fill="#D31218"/>
<path d="M16.1252 5.93087C15.4349 5.93087 14.8751 6.49075 14.8751 7.181C14.8751 7.87138 15.4349 8.43112 16.1252 8.43112C19.9922 8.43112 23.1381 11.6647 23.1381 15.6394C23.1381 16.3298 23.698 16.8895 24.3883 16.8895C25.0787 16.8895 25.6384 16.3296 25.6384 15.6394C25.6386 10.2861 21.3709 5.93087 16.1252 5.93087Z" fill="#D31218"/>
<path d="M16.1495 11.3944C15.459 11.3944 14.8993 11.954 14.8993 12.6445C14.8993 13.3349 15.4592 13.8946 16.1495 13.8946C17.0529 13.8946 17.7877 14.6601 17.7877 15.6011C17.7877 16.2915 18.3474 16.8512 19.0378 16.8512C19.7282 16.8512 20.288 16.2914 20.288 15.6011C20.2881 13.2815 18.4314 11.3944 16.1495 11.3944Z" fill="#D31218"/>
<path d="M57.3116 9.90812H54.5404C53.85 9.90812 53.2903 10.4679 53.2903 11.1582C53.2903 11.8486 53.85 12.4084 54.5404 12.4084H57.3116C59.6209 12.4084 61.4997 14.2871 61.4997 16.5964V33.5662C61.4997 34.8959 60.8761 36.0817 59.9069 36.8495V33.5802C59.9069 31.0298 58.087 28.8391 55.5797 28.3715L54.7716 28.2209C54.9518 27.6684 55.0504 27.0796 55.0504 26.4678V23.595C55.0504 20.4714 52.5091 17.9301 49.3854 17.9301C46.2618 17.9301 43.7206 20.4714 43.7206 23.595V26.4678C43.7206 27.0796 43.8193 27.6684 43.9995 28.2209L43.1913 28.3715C40.6839 28.839 38.8641 31.0296 38.8641 33.5802V37.2044C37.6006 36.4825 36.7464 35.1226 36.7464 33.5662V16.5964C36.7464 14.2871 38.6252 12.4084 40.9345 12.4084H43.9141C44.6045 12.4084 45.1642 11.8486 45.1642 11.1582C45.1642 10.4679 44.6043 9.90812 43.9141 9.90812H40.9345C37.2466 9.90812 34.2461 12.9085 34.2461 16.5964V33.5662C34.2461 37.2541 37.2466 40.2545 40.9345 40.2545H47.2254V43.8489C47.2254 44.3538 47.5292 44.8092 47.9953 45.003C48.1505 45.0676 48.3135 45.099 48.4753 45.099C48.7993 45.099 49.1179 44.973 49.3568 44.7357L53.8664 40.2545H57.3116C60.9996 40.2545 64 37.2541 64 33.5662V16.5964C64 12.9085 60.9996 9.90812 57.3116 9.90812ZM46.2208 23.595C46.2208 21.85 47.6403 20.4304 49.3853 20.4304C51.1304 20.4304 52.55 21.85 52.55 23.595V26.4678C52.55 28.2128 51.1304 29.6324 49.3853 29.6324C47.6403 29.6324 46.2208 28.2128 46.2208 26.4678V23.595ZM57.4062 37.7516C57.3746 37.7524 57.3432 37.754 57.3114 37.754H53.3509V37.7542C53.0206 37.7542 52.7039 37.8849 52.4696 38.1175L49.7257 40.8442V39.0042C49.7257 38.3139 49.1658 37.7541 48.4756 37.7541H41.3645V33.5801C41.3645 32.2332 42.3257 31.0763 43.6497 30.8293L45.4121 30.5006C46.4354 31.509 47.8387 32.1325 49.3854 32.1325C50.9321 32.1325 52.3356 31.5087 53.3589 30.5005L55.1214 30.8291C56.4456 31.0761 57.4066 32.233 57.4066 33.5801V37.7516H57.4062Z" fill="#D31218"/>
<path d="M49.5067 10.2749C49.2743 10.0411 48.9517 9.90862 48.6229 9.90862C48.2942 9.90862 47.9715 10.0411 47.739 10.2749C47.5065 10.5062 47.3728 10.8289 47.3728 11.1587C47.3728 11.4875 47.5064 11.8101 47.739 12.0426C47.9715 12.275 48.294 12.4089 48.6229 12.4089C48.9517 12.4089 49.2743 12.2751 49.5067 12.0426C49.7392 11.8089 49.8731 11.4876 49.8731 11.1587C49.8731 10.8287 49.7393 10.5074 49.5067 10.2749Z" fill="#D31218"/>
<path d="M23.2345 42.0546C23.002 41.8221 22.6808 41.6884 22.3506 41.6884C22.0219 41.6884 21.6992 41.8221 21.4669 42.0546C21.2344 42.2871 21.1005 42.6096 21.1005 42.9385C21.1005 43.2685 21.2342 43.5899 21.4669 43.8224C21.7005 44.0561 22.0219 44.1898 22.3506 44.1898C22.6794 44.1898 23.002 44.0561 23.2345 43.8224C23.4683 43.5899 23.6008 43.2684 23.6008 42.9385C23.6008 42.6097 23.4683 42.2873 23.2345 42.0546Z" fill="#D31218"/>
<path d="M50.5983 53.3587L41.0206 43.7811C39.7456 42.5061 37.7398 42.3196 36.2518 43.3372L30.1389 47.517C29.6428 47.8561 28.9745 47.794 28.5494 47.3689L26.528 45.3474C26.04 44.8595 25.2486 44.8594 24.7598 45.3474C24.2717 45.8355 24.2717 46.627 24.7598 47.1155L26.7812 49.137C28.0562 50.4119 30.0618 50.5988 31.5501 49.5809L37.6629 45.4012C38.1588 45.0621 38.8274 45.1241 39.2525 45.5493L48.8303 55.1269C49.3177 55.6141 49.3176 56.4074 48.8302 56.895C42.6886 63.0365 32.6952 63.0365 26.5536 56.895L7.10543 37.447C4.13012 34.4719 2.49183 30.5164 2.49183 26.3089C2.49183 22.1014 4.13024 18.1458 7.10556 15.1705C7.34169 14.9344 7.65557 14.8045 7.98945 14.8045C8.32346 14.8045 8.63746 14.9345 8.87347 15.1706L18.4512 24.7482C18.8761 25.1731 18.9383 25.8417 18.5993 26.3377L14.4197 32.4505C13.4018 33.9386 13.5886 35.9441 14.8635 37.2192L17.902 40.2578C18.3903 40.7458 19.1817 40.7458 19.6702 40.2578C20.1583 39.7696 20.1583 38.978 19.6702 38.4896L16.6316 35.4511C16.2067 35.0263 16.1445 34.3577 16.4836 33.8618L20.6633 27.749C21.681 26.2607 21.4942 24.2551 20.2193 22.9802L10.6416 13.4026C9.17935 11.9404 6.79992 11.9404 5.33739 13.4026C-1.77913 20.5191 -1.77913 32.0985 5.33739 39.215L24.7856 58.6626C28.3439 62.2209 33.0178 64 37.6918 64C42.3659 63.9999 47.0399 62.2207 50.5982 58.6626C52.0605 57.2004 52.0605 54.8211 50.5983 53.3587Z" fill="#D31218"/>
<path d="M16.8405 30.7399L9.2621 23.1616C8.77372 22.6736 7.98232 22.6736 7.49394 23.1616C7.0058 23.6499 7.0058 24.4415 7.49394 24.9298L15.0725 32.508C15.3166 32.752 15.6364 32.8741 15.9565 32.8741C16.2764 32.8741 16.5964 32.752 16.8405 32.508C17.3286 32.0197 17.3286 31.2281 16.8405 30.7399Z" fill="#D31218"/>
<path d="M45.8454 59.744L37.8716 51.7704C37.3832 51.2824 36.5918 51.2824 36.1034 51.7704C35.6153 52.2586 35.6153 53.0503 36.1034 53.5385L44.0772 61.5121C44.3213 61.7561 44.6411 61.8783 44.9612 61.8783C45.2811 61.8783 45.6011 61.7561 45.8454 61.5121C46.3335 61.0237 46.3335 60.2323 45.8454 59.744Z" fill="#D31218"/>
</svg>
