<svg width="53" height="64" viewBox="0 0 53 64" fill="none" xmlns="http://www.w3.org/2000/svg">
<path d="M51.0665 64V48.4034L52.892 41.5411C53.0551 40.9287 53.0331 40.2815 52.8288 39.6817C52.6244 39.0818 52.247 38.5564 51.7443 38.1719C51.2417 37.7875 50.6365 37.5614 50.0054 37.5223C49.3744 37.4833 48.7461 37.633 48.2001 37.9526L46.0458 39.2126C45.3185 38.6963 44.5347 38.265 43.7097 37.9271L35.604 34.6765C36.8199 33.2077 37.6559 31.4609 38.0378 29.5908L40.7913 28.2104C41.3227 27.9462 41.7695 27.538 42.0813 27.0322C42.3931 26.5263 42.5574 25.9431 42.5555 25.3484V24.5333C42.5545 23.6849 42.218 22.8715 41.6196 22.2716C41.0213 21.6717 40.21 21.3343 39.3638 21.3333H38.2999V19.0034C38.9216 18.7861 39.4604 18.3802 39.8416 17.842C40.2229 17.3038 40.4277 16.6601 40.4277 16C40.4277 15.3399 40.2229 14.6962 39.8416 14.158C39.4604 13.6199 38.9216 13.2139 38.2999 12.9966V11.7333C38.2971 9.18814 37.2874 6.74801 35.4923 4.94828C33.6973 3.14856 31.2635 2.13621 28.725 2.13334H28.5289C28.3121 1.51007 27.9072 0.969861 27.3705 0.587611C26.8337 0.20536 26.1917 0 25.5333 0C24.8749 0 24.2329 0.20536 23.6961 0.587611C23.1594 0.969861 22.7545 1.51007 22.5377 2.13334H22.3416C19.8031 2.13621 17.3693 3.14856 15.5743 4.94828C13.7793 6.74801 12.7695 9.18814 12.7667 11.7333V12.9966C12.145 13.2139 11.6062 13.6198 11.2249 14.158C10.8437 14.6961 10.6388 15.3399 10.6388 16C10.6388 16.6601 10.8437 17.3038 11.2249 17.842C11.6062 18.3801 12.145 18.786 12.7667 19.0034V21.3333H11.7028C10.8566 21.3343 10.0453 21.6717 9.44698 22.2716C8.84863 22.8715 8.51207 23.6849 8.51114 24.5333V25.3484C8.50925 25.9431 8.67351 26.5264 8.9853 27.0322C9.2971 27.538 9.74397 27.9462 10.2753 28.2104L13.0289 29.5908C13.4108 31.4609 14.2468 33.2076 15.4628 34.6764L7.35687 37.9276C5.1807 38.792 3.31481 40.2938 2.00251 42.2371C0.690201 44.1804 -0.00761259 46.4751 6.26406e-05 48.8219V64H51.0665ZM12.7667 55.4667H24.4694V57.6H12.7667V55.4667ZM30.4122 57.6H26.5972V55.4667H32.54L30.4122 57.6ZM12.7667 59.7333H24.4694V61.8667H12.7667V59.7333ZM26.5972 59.7333H28.874C28.6502 60.432 28.6791 61.1873 28.9557 61.8667H26.5972V59.7333ZM30.8527 60.6708C30.8522 60.5137 30.8828 60.358 30.9427 60.2128C31.0026 60.0676 31.0907 59.9358 31.2018 59.825L35.42 55.5963C35.6196 55.3967 35.8901 55.2845 36.1721 55.2844C36.4541 55.2843 36.7246 55.3963 36.9244 55.5958L37.1072 55.7797C37.206 55.8786 37.2844 55.9961 37.3379 56.1254C37.3914 56.2547 37.4189 56.3933 37.4189 56.5333C37.4189 56.6733 37.3914 56.8119 37.3379 56.9413C37.2844 57.0706 37.206 57.1881 37.1072 57.287L32.8891 61.5167C32.7222 61.6838 32.5097 61.7977 32.2783 61.8438C32.0469 61.8899 31.8071 61.8661 31.5892 61.7756C31.3712 61.6851 31.1849 61.5318 31.0539 61.3352C30.9228 61.1385 30.8528 60.9074 30.8527 60.6708ZM41.188 53.0127C41.614 53.2212 42.0814 53.3308 42.5555 53.3333H47.3045C47.8811 53.331 48.4461 53.171 48.9388 52.8706V57.6H39.353C39.5078 57.1853 39.571 56.742 39.5383 56.3004C39.5055 55.8589 39.3776 55.4298 39.1633 55.0426L41.188 53.0127ZM35.5488 61.8667L37.6765 59.7333H48.9388V61.8667H35.5488ZM49.2723 39.7953C49.433 39.6974 49.6172 39.6449 49.8053 39.6432C50.0398 39.6472 50.267 39.7262 50.4536 39.8687C50.6233 39.995 50.7507 40.1698 50.8192 40.3702C50.8876 40.5706 50.8938 40.7871 50.837 40.9911L48.9725 48H48.9388V48.1269L48.332 50.4078C48.2715 50.6348 48.138 50.8354 47.9523 50.9786C47.7665 51.1218 47.5388 51.1996 47.3045 51.2H42.5555C42.2734 51.1997 42.0029 51.0872 41.8035 50.8873C41.604 50.6873 41.4919 50.4161 41.4916 50.1333V44.9589C41.492 44.7725 41.5409 44.5895 41.6335 44.4279C41.726 44.2664 41.859 44.1318 42.0194 44.0375L49.2723 39.7953ZM43.9841 40.4186L40.9472 42.1948C40.4661 42.4774 40.0669 42.8811 39.7892 43.3659C39.5115 43.8507 39.3649 44.3998 39.3638 44.9589V50.1333C39.3663 50.6086 39.4756 51.0772 39.6836 51.5044L37.6577 53.5355C37.2688 53.3294 36.8415 53.2061 36.4028 53.1734C35.9641 53.1407 35.5233 53.1993 35.1083 53.3455V53.3333H26.5972V50.7201C28.9895 49.208 30.9977 47.1581 32.4626 44.7327C33.9275 42.3073 34.8089 39.5732 35.0368 36.7469L42.9191 39.9078C43.2842 40.056 43.6399 40.2265 43.9841 40.4186ZM31.676 41.6H19.3906C18.7818 40.1716 18.3812 38.6628 18.2011 37.12L18.6793 37.4245C20.7295 38.7261 23.1061 39.4171 25.5327 39.4172C27.9593 39.4173 30.336 38.7264 32.3862 37.425L32.8655 37.1201C32.6854 38.6629 32.2848 40.1717 31.676 41.6ZM30.5775 43.7333C29.3018 45.8043 27.5778 47.5612 25.5333 48.874C23.4889 47.5611 21.765 45.8043 20.4892 43.7333H30.5775ZM39.3638 23.4667C39.6459 23.467 39.9163 23.5794 40.1158 23.7794C40.3152 23.9794 40.4274 24.2505 40.4277 24.5333V25.3484C40.4283 25.5466 40.3735 25.741 40.2696 25.9095C40.1656 26.078 40.0167 26.214 39.8396 26.302L38.2999 27.074V23.4667H39.3638ZM22.3416 4.26667V9.60001H24.4694V3.20001C24.4694 2.91711 24.5815 2.6458 24.781 2.44576C24.9805 2.24572 25.2511 2.13334 25.5333 2.13334C25.8155 2.13334 26.0861 2.24572 26.2856 2.44576C26.4851 2.6458 26.5972 2.91711 26.5972 3.20001V9.60001H28.725V4.26667C30.6994 4.26898 32.5923 5.05639 33.9884 6.45616C35.3845 7.85593 36.1698 9.75377 36.1721 11.7333V12.8H14.8945V11.7333C14.8968 9.75377 15.6821 7.85593 17.0782 6.45616C18.4743 5.05639 20.3672 4.26898 22.3416 4.26667ZM13.8306 14.9333H37.236C37.5182 14.9333 37.7888 15.0457 37.9883 15.2458C38.1878 15.4458 38.2999 15.7171 38.2999 16C38.2999 16.2829 38.1878 16.5542 37.9883 16.7543C37.7888 16.9543 37.5182 17.0667 37.236 17.0667H13.8306C13.5484 17.0667 13.2778 16.9543 13.0783 16.7543C12.8788 16.5542 12.7667 16.2829 12.7667 16C12.7667 15.7171 12.8788 15.4458 13.0783 15.2458C13.2778 15.0457 13.5484 14.9333 13.8306 14.9333ZM10.6389 25.3484V24.5333C10.6392 24.2505 10.7514 23.9794 10.9508 23.7794C11.1503 23.5794 11.4207 23.467 11.7028 23.4667H12.7667V27.074L11.227 26.3021C11.0499 26.2141 10.9009 26.0781 10.797 25.9095C10.6931 25.741 10.6383 25.5466 10.6389 25.3484ZM14.8945 19.2H36.1721V27.2115C36.1764 28.827 35.7719 30.4173 34.9966 31.8336C34.2213 33.2498 33.1005 34.4459 31.7389 35.3099L31.2444 35.6244C29.5358 36.7093 27.5551 37.2852 25.5327 37.2851C23.5103 37.285 21.5296 36.7089 19.8211 35.6239L19.3287 35.3104C17.9668 34.4465 16.8458 33.2504 16.0703 31.834C15.2948 30.4176 14.8903 28.8272 14.8945 27.2115V19.2ZM8.14647 39.9083L16.0298 36.7469C16.2577 39.5732 17.1391 42.3073 18.604 44.7327C20.0689 47.1581 22.0771 49.208 24.4694 50.7201V53.3333H12.7667V52.2667C12.7632 49.9171 11.9013 47.6503 10.3439 45.8947C8.78657 44.139 6.64167 43.0163 4.31469 42.7386C5.33315 41.486 6.65138 40.5123 8.14647 39.9083ZM2.12783 48.8219C2.12881 47.433 2.43003 46.0609 3.01075 44.8H3.19172C5.16613 44.8023 7.05901 45.5897 8.45514 46.9895C9.85126 48.3893 10.6366 50.2871 10.6389 52.2667V61.8667H2.12783V48.8219Z" fill="#D31218"/>
</svg>
