<svg width="64" height="64" viewBox="0 0 64 64" fill="none" xmlns="http://www.w3.org/2000/svg">
<path d="M63.8823 15.1682C63.662 14.349 63.1246 13.6505 62.3894 13.2271C61.6535 12.8016 60.7787 12.6865 59.958 12.9068C59.1383 13.1276 58.44 13.6646 58.0167 14.4L57.4834 15.3281C56.9767 15.037 56.3294 15.2083 56.0331 15.7125L53.3242 20.3307L52.3963 19.7974C52.1505 19.6552 51.8578 19.6167 51.5839 19.6906C51.3095 19.7651 51.0762 19.9453 50.9351 20.1922C50.646 20.7021 50.8221 21.35 51.3298 21.6427L52.2577 22.176L43.1926 37.888L40.9529 43.8724L39.8864 45.8667C39.262 46.9531 39.3287 48.3036 40.0572 49.3229L37.6576 52.2667L36.9859 50.5818C36.6828 49.8307 35.9814 49.3161 35.1747 49.2531C34.3676 49.1896 33.5943 49.5885 33.1782 50.2828L32.7944 50.9333L32.432 46.6667C32.3486 45.6573 31.567 44.8458 30.562 44.724C29.5564 44.6026 28.6045 45.2052 28.2832 46.1656L25.6597 54.0375C25.4764 54.5943 25.7763 55.1943 26.3314 55.3818C26.4356 55.4302 26.5476 55.4594 26.6621 55.4667C27.1204 55.4682 27.5286 55.176 27.6755 54.7417L30.2881 46.8698L30.6614 51.2C30.7385 52.124 31.4025 52.8922 32.3054 53.1016C33.2084 53.3109 34.1426 52.913 34.618 52.1177L35.0128 51.4667L35.6741 53.1417C35.9548 53.8474 36.5896 54.351 37.341 54.463C38.0925 54.575 38.8465 54.2786 39.3214 53.6854L41.8064 50.5391C42.0814 50.6109 42.3646 50.6469 42.649 50.6458C43.792 50.6547 44.8533 50.0526 45.4323 49.0667L46.4988 47.2854L50.5622 42.3469L59.7231 26.4427L60.6511 26.976C60.8985 27.1177 61.0786 27.3516 61.1521 27.6271C61.226 27.9005 61.1875 28.1922 61.0458 28.4375L56.7799 35.8297C56.619 36.0724 56.5643 36.3703 56.6289 36.6547C56.6934 36.9385 56.871 37.1839 57.121 37.3333C57.3668 37.476 57.6594 37.5146 57.9333 37.4406C58.2078 37.3661 58.4411 37.1859 58.5822 36.9391L62.8481 29.5469C63.2736 28.8109 63.3887 27.9359 63.1679 27.1151C62.9471 26.2953 62.4102 25.5969 61.6749 25.1734L60.7469 24.6401L63.4131 20.0214C63.7042 19.5146 63.5329 18.8677 63.0293 18.5708L63.5626 17.6427C63.9995 16.8953 64.1151 16.0026 63.8823 15.1682ZM59.8617 15.4667C60.0028 15.2198 60.2371 15.0391 60.5126 14.9656C60.7865 14.8979 61.076 14.9359 61.3229 15.0724C61.5702 15.2135 61.7504 15.4479 61.8243 15.7229C61.892 15.9969 61.854 16.2865 61.7176 16.5333L61.1843 17.4615L59.3284 16.3948L59.8617 15.4667ZM45.3256 45.2484L43.214 44.0214L44.7283 39.9682L48.0876 41.9094L45.3256 45.2484ZM42.1261 48.3307C41.6757 48.0167 41.5372 47.4125 41.8064 46.9333L42.3396 46.0057L44.1951 47.0724L43.6618 47.9896C43.5124 48.249 43.2614 48.4333 42.9692 48.4984C42.6771 48.563 42.3714 48.5026 42.1261 48.3307ZM49.3036 40.1604L45.6136 38.0271L54.1454 23.2427L57.8354 25.376L49.3036 40.1604ZM58.9019 23.5307L55.2119 21.3974L57.3449 17.7068L61.0349 19.8401L58.9019 23.5307Z" fill="#D31218"/>
<path d="M16.8289 47.7974L13.054 51.563L10.7929 49.3016C10.3769 48.888 9.70511 48.888 9.28904 49.3016C9.08699 49.5021 8.97347 49.7745 8.97347 50.0589C8.97347 50.3432 9.08699 50.6161 9.28904 50.8161L11.5501 53.0776C11.95 53.4745 12.4906 53.6969 13.054 53.6964C13.6206 53.6995 14.1658 53.4771 14.5683 53.0776L18.3328 49.3016C18.6952 48.8781 18.6708 48.2474 18.2771 47.8536C17.8829 47.4594 17.2523 47.4349 16.8289 47.7974Z" fill="#D31218"/>
<path d="M4.26594 50.6667C4.26594 55.6745 8.32462 59.7333 13.3311 59.7333C18.3375 59.7333 22.3962 55.6745 22.3962 50.6667C22.3962 50.0776 21.9187 49.6 21.3297 49.6C20.7407 49.6 20.2632 50.0776 20.2632 50.6667C20.2632 54.4958 17.1596 57.6 13.3311 57.6C9.50255 57.6 6.39891 54.4958 6.39891 50.6667C6.39891 46.8375 9.50255 43.7333 13.3311 43.7333C14.8318 43.7292 16.2925 44.2161 17.4902 45.1203C17.9615 45.474 18.6302 45.3781 18.9832 44.9068C19.3368 44.4354 19.2415 43.7672 18.7702 43.4135C16.0233 41.3531 12.3479 41.0219 9.27706 42.5573C6.20571 44.0932 4.26594 47.2328 4.26594 50.6667Z" fill="#D31218"/>
<path d="M38.3934 8.53333C38.9824 8.53333 39.4599 8.05625 39.4599 7.46667C39.4599 6.8776 38.9824 6.4 38.3934 6.4H10.6648C10.0759 6.4 9.59836 6.8776 9.59836 7.46667V11.7333C9.59836 12.3229 10.0759 12.8 10.6648 12.8H38.3934C38.9824 12.8 39.4599 12.3229 39.4599 11.7333C39.4599 11.1443 38.9824 10.6667 38.3934 10.6667H11.7313V8.53333H38.3934Z" fill="#D31218"/>
<path d="M13.8643 14.9333C13.2753 14.9333 12.7978 15.4109 12.7978 16C12.7978 16.5896 13.2753 17.0667 13.8643 17.0667H35.194C35.783 17.0667 36.2605 16.5896 36.2605 16C36.2605 15.4109 35.783 14.9333 35.194 14.9333H13.8643Z" fill="#D31218"/>
<path d="M41.5929 22.4H18.1302C17.5413 22.4 17.0638 22.8776 17.0638 23.4667C17.0638 24.0562 17.5413 24.5333 18.1302 24.5333H41.5929C42.1819 24.5333 42.6594 24.0562 42.6594 23.4667C42.6594 22.8776 42.1819 22.4 41.5929 22.4Z" fill="#D31218"/>
<path d="M30.9281 29.8667C30.9281 29.2776 30.4505 28.8 29.8616 28.8H8.53188C7.94291 28.8 7.46539 29.2776 7.46539 29.8667C7.46539 30.4563 7.94291 30.9333 8.53188 30.9333H29.8616C30.4505 30.9333 30.9281 30.4563 30.9281 29.8667Z" fill="#D31218"/>
<path d="M41.5929 28.8H34.1275C33.5385 28.8 33.061 29.2776 33.061 29.8667C33.061 30.4563 33.5385 30.9333 34.1275 30.9333H41.5929C42.1819 30.9333 42.6594 30.4563 42.6594 29.8667C42.6594 29.2776 42.1819 28.8 41.5929 28.8Z" fill="#D31218"/>
<path d="M19.1967 36.2667C19.7857 36.2667 20.2632 35.7896 20.2632 35.2C20.2632 34.6109 19.7857 34.1333 19.1967 34.1333H8.53188C7.94292 34.1333 7.46539 34.6109 7.46539 35.2C7.46539 35.7896 7.94292 36.2667 8.53188 36.2667H19.1967Z" fill="#D31218"/>
<path d="M23.4627 36.2667H30.9281C31.517 36.2667 31.9945 35.7896 31.9945 35.2C31.9945 34.6109 31.517 34.1333 30.9281 34.1333H23.4627C22.8737 34.1333 22.3962 34.6109 22.3962 35.2C22.3962 35.7896 22.8737 36.2667 23.4627 36.2667Z" fill="#D31218"/>
<path d="M47.9918 49.0667C47.4028 49.0667 46.9253 49.5443 46.9253 50.1333V60.8C46.9253 61.3896 46.4478 61.8667 45.8588 61.8667H3.19945C2.61049 61.8667 2.13297 61.3896 2.13297 60.8V3.2C2.13297 2.61094 2.61049 2.13333 3.19945 2.13333H45.8588C46.4478 2.13333 46.9253 2.61094 46.9253 3.2V23.2323C46.9253 23.8214 47.4028 24.299 47.9918 24.299C48.5808 24.299 49.0583 23.8214 49.0583 23.2323V3.2C49.0583 1.43281 47.6257 0 45.8588 0H3.19945C1.43257 0 0 1.43281 0 3.2V60.8C0 62.5677 1.43257 64 3.19945 64H45.8588C47.6257 64 49.0583 62.5677 49.0583 60.8V50.1333C49.0583 49.5443 48.5808 49.0667 47.9918 49.0667Z" fill="#D31218"/>
</svg>
