<svg width="64" height="64" viewBox="0 0 64 64" fill="none" xmlns="http://www.w3.org/2000/svg">
<path d="M24.5 2.5C24.8286 2.5 25.1514 2.36621 25.3838 2.13379C25.6162 1.90137 25.75 1.57861 25.75 1.25C25.75 0.921387 25.6162 0.598633 25.3838 0.366211C25.1514 0.133789 24.8286 0 24.5 0C24.1714 0 23.8486 0.133789 23.6162 0.366211C23.3838 0.598633 23.25 0.921387 23.25 1.25C23.25 1.57861 23.3838 1.90137 23.6162 2.13379C23.8486 2.36621 24.1714 2.5 24.5 2.5Z" fill="#D31218"/>
<path d="M58.75 25.5H49V1.25C49 0.55957 48.4404 0 47.75 0H29.5C28.8096 0 28.25 0.55957 28.25 1.25C28.25 1.94043 28.8096 2.5 29.5 2.5H46.5V25.5H37.75C34.855 25.5 32.5 27.855 32.5 30.75V33.75H22.3125C21.6221 33.75 21.0625 34.3096 21.0625 35C21.0625 35.6904 21.6221 36.25 22.3125 36.25H32.5V45.75H22.3125C21.6221 45.75 21.0625 46.3096 21.0625 47C21.0625 47.6904 21.6221 48.25 22.3125 48.25H32.5V55.5H11.25C10.5596 55.5 10 56.0596 10 56.75V57.75C10 59.8179 8.31787 61.5 6.25 61.5C4.18213 61.5 2.5 59.8179 2.5 57.75V2.5H19.5C20.1904 2.5 20.75 1.94043 20.75 1.25C20.75 0.55957 20.1904 0 19.5 0H1.25C0.55957 0 0 0.55957 0 1.25V57.75C0 61.1963 2.80371 64 6.25 64H58.75C61.645 64 64 61.645 64 58.75V30.75C64 27.855 61.645 25.5 58.75 25.5ZM12.4937 58H32.5V58.75C32.5 59.7578 32.7861 60.6997 33.2803 61.5H11.2466C11.9863 60.5171 12.4419 59.3096 12.4937 58ZM61.5 58.75C61.5 60.2666 60.2666 61.5 58.75 61.5H37.75C36.2334 61.5 35 60.2666 35 58.75V30.75C35 29.2334 36.2334 28 37.75 28H58.75C60.2666 28 61.5 29.2334 61.5 30.75V58.75Z" fill="#D31218"/>
<path d="M57.25 31H39.2446C38.5547 31 37.9946 31.5596 37.9946 32.25V39.25C37.9946 39.9404 38.5547 40.5 39.2446 40.5H57.25C57.9404 40.5 58.5 39.9404 58.5 39.25V32.25C58.5 31.5596 57.9404 31 57.25 31ZM56 38H40.4946V33.5H56V38Z" fill="#D31218"/>
<path d="M41.625 42.5H39.2446C38.5547 42.5 37.9946 43.0596 37.9946 43.75C37.9946 44.4404 38.5547 45 39.2446 45H41.625C42.3154 45 42.875 44.4404 42.875 43.75C42.875 43.0596 42.3154 42.5 41.625 42.5Z" fill="#D31218"/>
<path d="M49.4375 42.5H47.0571C46.3672 42.5 45.8071 43.0596 45.8071 43.75C45.8071 44.4404 46.3672 45 47.0571 45H49.4375C50.1279 45 50.6875 44.4404 50.6875 43.75C50.6875 43.0596 50.1279 42.5 49.4375 42.5Z" fill="#D31218"/>
<path d="M57.25 42.5H54.8696C54.1797 42.5 53.6196 43.0596 53.6196 43.75C53.6196 44.4404 54.1797 45 54.8696 45H57.25C57.9404 45 58.5 44.4404 58.5 43.75C58.5 43.0596 57.9404 42.5 57.25 42.5Z" fill="#D31218"/>
<path d="M41.625 47.0835H39.2446C38.5547 47.0835 37.9946 47.6431 37.9946 48.3335C37.9946 49.0239 38.5547 49.5835 39.2446 49.5835H41.625C42.3154 49.5835 42.875 49.0239 42.875 48.3335C42.875 47.6431 42.3154 47.0835 41.625 47.0835Z" fill="#D31218"/>
<path d="M49.4375 47.0835H47.0571C46.3672 47.0835 45.8071 47.6431 45.8071 48.3335C45.8071 49.0239 46.3672 49.5835 47.0571 49.5835H49.4375C50.1279 49.5835 50.6875 49.0239 50.6875 48.3335C50.6875 47.6431 50.1279 47.0835 49.4375 47.0835Z" fill="#D31218"/>
<path d="M57.25 47.0835H54.8696C54.1797 47.0835 53.6196 47.6431 53.6196 48.3335C53.6196 49.0239 54.1797 49.5835 54.8696 49.5835H57.25C57.9404 49.5835 58.5 49.0239 58.5 48.3335C58.5 47.6431 57.9404 47.0835 57.25 47.0835Z" fill="#D31218"/>
<path d="M41.625 51.6665H39.2446C38.5547 51.6665 37.9946 52.2261 37.9946 52.9165C37.9946 53.6069 38.5547 54.1665 39.2446 54.1665H41.625C42.3154 54.1665 42.875 53.6069 42.875 52.9165C42.875 52.2261 42.3154 51.6665 41.625 51.6665Z" fill="#D31218"/>
<path d="M49.4375 51.6665H47.0571C46.3672 51.6665 45.8071 52.2261 45.8071 52.9165C45.8071 53.6069 46.3672 54.1665 47.0571 54.1665H49.4375C50.1279 54.1665 50.6875 53.6069 50.6875 52.9165C50.6875 52.2261 50.1279 51.6665 49.4375 51.6665Z" fill="#D31218"/>
<path d="M57.25 51.6665H54.8696C54.1797 51.6665 53.6196 52.2261 53.6196 52.9165C53.6196 53.6069 54.1797 54.1665 54.8696 54.1665H57.25C57.9404 54.1665 58.5 53.6069 58.5 52.9165C58.5 52.2261 57.9404 51.6665 57.25 51.6665Z" fill="#D31218"/>
<path d="M41.625 56.25H39.2446C38.5547 56.25 37.9946 56.8096 37.9946 57.5C37.9946 58.1904 38.5547 58.75 39.2446 58.75H41.625C42.3154 58.75 42.875 58.1904 42.875 57.5C42.875 56.8096 42.3154 56.25 41.625 56.25Z" fill="#D31218"/>
<path d="M49.4375 56.25H47.0571C46.3672 56.25 45.8071 56.8096 45.8071 57.5C45.8071 58.1904 46.3672 58.75 47.0571 58.75H49.4375C50.1279 58.75 50.6875 58.1904 50.6875 57.5C50.6875 56.8096 50.1279 56.25 49.4375 56.25Z" fill="#D31218"/>
<path d="M57.25 56.25H54.8696C54.1797 56.25 53.6196 56.8096 53.6196 57.5C53.6196 58.1904 54.1797 58.75 54.8696 58.75H57.25C57.9404 58.75 58.5 58.1904 58.5 57.5C58.5 56.8096 57.9404 56.25 57.25 56.25Z" fill="#D31218"/>
<path d="M15.25 8C15.25 7.30957 14.6904 6.75 14 6.75H8C7.30957 6.75 6.75 7.30957 6.75 8V14C6.75 14.6904 7.30957 15.25 8 15.25H14C14.6904 15.25 15.25 14.6904 15.25 14V8ZM12.75 12.75H9.25V9.25H12.75V12.75Z" fill="#D31218"/>
<path d="M15.25 20C15.25 19.3096 14.6904 18.75 14 18.75H8C7.30957 18.75 6.75 19.3096 6.75 20V26C6.75 26.6904 7.30957 27.25 8 27.25H14C14.6904 27.25 15.25 26.6904 15.25 26V20ZM12.75 24.75H9.25V21.25H12.75V24.75Z" fill="#D31218"/>
<path d="M15.25 32C15.25 31.3096 14.6904 30.75 14 30.75H8C7.30957 30.75 6.75 31.3096 6.75 32V38C6.75 38.6904 7.30957 39.25 8 39.25H14C14.6904 39.25 15.25 38.6904 15.25 38V32ZM12.75 36.75H9.25V33.25H12.75V36.75Z" fill="#D31218"/>
<path d="M14 42.75H8C7.30957 42.75 6.75 43.3096 6.75 44V50C6.75 50.6904 7.30957 51.25 8 51.25H14C14.6904 51.25 15.25 50.6904 15.25 50V44C15.25 43.3096 14.6904 42.75 14 42.75ZM12.75 48.75H9.25V45.25H12.75V48.75Z" fill="#D31218"/>
<path d="M22.3125 12.25H37.625C38.3154 12.25 38.875 11.6904 38.875 11C38.875 10.3096 38.3154 9.75 37.625 9.75H22.3125C21.6221 9.75 21.0625 10.3096 21.0625 11C21.0625 11.6904 21.6221 12.25 22.3125 12.25Z" fill="#D31218"/>
<path d="M22.3125 24.25H37.625C38.3154 24.25 38.875 23.6904 38.875 23C38.875 22.3096 38.3154 21.75 37.625 21.75H22.3125C21.6221 21.75 21.0625 22.3096 21.0625 23C21.0625 23.6904 21.6221 24.25 22.3125 24.25Z" fill="#D31218"/>
</svg>
