<svg width="64" height="64" viewBox="0 0 64 64" fill="none" xmlns="http://www.w3.org/2000/svg">
<path d="M28.2083 30.0437L25.2802 31.9979H22.4002C22.1173 31.9979 21.846 32.1103 21.646 32.3104C21.4459 32.5104 21.3335 32.7818 21.3335 33.0647C21.3335 33.3476 21.4459 33.6189 21.646 33.819C21.846 34.019 22.1173 34.1314 22.4002 34.1314H25.6002C25.8109 34.1311 26.0168 34.0688 26.1922 33.9522L29.3923 31.8187C29.5088 31.741 29.6089 31.641 29.6868 31.5246C29.7648 31.4082 29.819 31.2775 29.8464 31.1402C29.8739 31.0028 29.874 30.8613 29.8467 30.7239C29.8195 30.5865 29.7655 30.4557 29.6877 30.3392C29.61 30.2226 29.5101 30.1225 29.3936 30.0446C29.2772 29.9667 29.1466 29.9124 29.0092 29.885C28.8718 29.8576 28.7304 29.8575 28.593 29.8847C28.4555 29.9119 28.3248 29.9659 28.2083 30.0437Z" fill="#D31218"/>
<path d="M62.4379 51.8776C62.2367 51.6833 61.9673 51.5758 61.6876 51.5782C61.4079 51.5807 61.1404 51.6928 60.9426 51.8906C60.7449 52.0884 60.6327 52.3559 60.6303 52.6356C60.6278 52.9153 60.7353 53.1848 60.9296 53.386C61.2268 53.6832 61.4626 54.036 61.6235 54.4243C61.7843 54.8126 61.8671 55.2288 61.8671 55.6491C61.8671 56.0694 61.7843 56.4855 61.6235 56.8739C61.4626 57.2622 61.2268 57.615 60.9296 57.9121L57.9131 60.9299C57.3121 61.5286 56.4984 61.8648 55.6501 61.8648C54.8018 61.8648 53.9881 61.5286 53.3872 60.9299L51.1237 58.6663L59.4214 50.3693C59.6213 50.1692 59.7337 49.8979 59.7337 49.6151C59.7337 49.3322 59.6213 49.0609 59.4214 48.8609L53.3872 42.8264C52.6552 42.0914 51.7237 41.5871 50.7081 41.3758C49.6926 41.1646 48.6373 41.2558 47.673 41.638L40.9529 34.9176C41.7088 33.805 42.3635 32.6269 42.9092 31.3974C42.9704 31.2683 43.005 31.1282 43.011 30.9855C43.017 30.8428 42.9943 30.7003 42.9442 30.5666C42.8941 30.4328 42.8176 30.3104 42.7194 30.2068C42.6211 30.1031 42.503 30.0202 42.3721 29.9631C42.2412 29.9059 42.1002 29.8756 41.9573 29.874C41.8145 29.8724 41.6728 29.8994 41.5407 29.9536C41.4085 30.0078 41.2886 30.088 41.188 30.1894C41.0874 30.2908 41.0082 30.4114 40.9551 30.544C39.1787 34.6691 36.0691 38.0785 32.1245 40.2259C28.1799 42.3732 23.6287 43.1342 19.2002 42.3869V40.2321C20.2559 40.4262 21.3268 40.5265 22.4002 40.5318C25.2167 40.5416 27.9961 39.889 30.514 38.6267C33.0319 37.3645 35.2178 35.5279 36.8953 33.2652C37.065 33.0389 37.1379 32.7544 37.0979 32.4743C37.0579 32.1943 36.9083 31.9416 36.6819 31.7718C36.4556 31.6021 36.1711 31.5292 35.8911 31.5692C35.611 31.6092 35.3583 31.7588 35.1886 31.9851C33.7086 33.9815 31.7801 35.602 29.5587 36.716C27.3373 37.83 24.8852 38.4063 22.4002 38.3984C21.3255 38.399 20.2535 38.2918 19.2002 38.0783V29.8645H22.4002C22.5404 29.8639 22.6792 29.836 22.8087 29.7823C22.9384 29.7287 23.0562 29.6501 23.1554 29.5509L27.4221 25.2839C27.6215 25.084 27.7335 24.8132 27.7336 24.5308V13.8635H27.724C27.7279 13.7231 27.7033 13.5834 27.6517 13.4529C27.6001 13.3223 27.5225 13.2036 27.4237 13.1039C27.3249 13.0041 27.2069 12.9255 27.0768 12.8727C26.9467 12.8199 26.8073 12.7941 26.6669 12.7967H16.0002C15.7173 12.7968 15.446 12.9092 15.246 13.1093L10.9793 17.3762C10.8302 17.5254 10.7286 17.7155 10.6875 17.9223C10.6463 18.1292 10.6675 18.3437 10.7482 18.5386C10.8289 18.7335 10.9656 18.9001 11.141 19.0173C11.3163 19.1345 11.5225 19.1971 11.7334 19.1971H21.3335V27.731H19.2002V25.5975C19.2002 25.3146 19.0878 25.0433 18.8878 24.8432C18.6877 24.6432 18.4164 24.5308 18.1335 24.5308C17.8506 24.5308 17.5793 24.6432 17.3792 24.8432C17.1792 25.0433 17.0668 25.3146 17.0668 25.5975V27.731H12.8001V22.3973C12.8001 22.1144 12.6877 21.8431 12.4877 21.643C12.2877 21.443 12.0163 21.3306 11.7334 21.3306C11.4505 21.3306 11.1792 21.443 10.9792 21.643C10.7791 21.8431 10.6668 22.1144 10.6668 22.3973V28.7977C10.6668 29.0807 10.7791 29.352 10.9792 29.552C11.1792 29.7521 11.4505 29.8645 11.7334 29.8645H17.0668V37.465C14.6853 36.6266 12.5362 35.2361 10.7955 33.4072C9.05484 31.5784 7.77205 29.3632 7.05219 26.9431C6.33233 24.523 6.19587 21.9669 6.654 19.4839C7.11213 17.0009 8.15181 14.6618 9.68791 12.658C11.224 10.6542 13.2129 9.04272 15.4916 7.95556C17.7703 6.86841 20.2741 6.33646 22.798 6.40328C25.3218 6.47009 27.794 7.13378 30.012 8.33999C32.23 9.5462 34.1308 11.2606 35.5587 13.3429C35.7191 13.576 35.9656 13.7359 36.2438 13.7873C36.5221 13.8387 36.8094 13.7775 37.0425 13.617C37.2756 13.4566 37.4354 13.2102 37.4868 12.9319C37.5383 12.6536 37.477 12.3663 37.3166 12.1332C35.6775 9.75103 33.492 7.79573 30.943 6.43065C28.3939 5.06558 25.5552 4.33038 22.6639 4.28647C19.7727 4.24256 16.913 4.89122 14.3236 6.17825C11.7343 7.46529 9.49052 9.35333 7.77978 11.6846C6.06904 14.0159 4.94101 16.7228 4.48994 19.5791C4.03886 22.4354 4.27784 25.3582 5.1869 28.1033C6.09596 30.8484 7.64871 33.336 9.71543 35.3584C11.7821 37.3809 14.3028 38.8793 17.0668 39.7286V41.9293C13.9447 41.0802 11.0714 39.4955 8.68756 37.3078C6.30369 35.1201 4.47862 32.3931 3.36517 29.355C2.25171 26.317 1.88228 23.0564 2.28781 19.8463C2.69333 16.6361 3.86201 13.5698 5.69598 10.9042C7.52996 8.23855 9.97585 6.0511 12.8289 4.52502C15.6819 2.99893 18.859 2.17862 22.0941 2.13278C25.3293 2.08694 28.5284 2.81689 31.4235 4.26152C34.3186 5.70616 36.8255 7.82342 38.7342 10.436C38.9014 10.6644 39.1525 10.8169 39.4321 10.8601C39.7118 10.9033 39.9971 10.8337 40.2254 10.6665C40.4537 10.4992 40.6063 10.2482 40.6495 9.96852C40.6927 9.68885 40.623 9.40347 40.4558 9.17516C38.3314 6.26869 35.5373 3.91753 32.3106 2.32111C29.0839 0.7247 25.5197 -0.0698657 21.9205 0.00481782C18.3213 0.0795014 14.7932 1.02123 11.6355 2.75012C8.47774 4.47901 5.78358 6.94406 3.7815 9.93615C1.77942 12.9282 0.528509 16.3591 0.134869 19.9377C-0.258771 23.5163 0.216476 27.1371 1.5203 30.4928C2.82412 33.8486 4.91805 36.8404 7.62446 39.2144C10.3309 41.5884 13.5699 43.2746 17.0668 44.1299V57.5996H16.0002C15.7173 57.5996 15.4459 57.712 15.2459 57.912C15.0459 58.1121 14.9335 58.3834 14.9335 58.6663C14.9335 58.9492 15.0459 59.2206 15.2459 59.4206C15.4459 59.6207 15.7173 59.7331 16.0002 59.7331H18.1335C18.4164 59.7331 18.6877 59.6207 18.8878 59.4206C19.0878 59.2206 19.2002 58.9492 19.2002 58.6663V44.5428C24.706 45.3946 30.3293 44.1126 34.9219 40.9585L41.642 47.679C41.2645 48.6426 41.1756 49.6953 41.386 50.7087C41.5965 51.722 42.0972 52.6523 42.8271 53.386L51.8789 62.4383C52.8799 63.437 54.2362 63.9978 55.6501 63.9978C57.0641 63.9978 58.4203 63.437 59.4214 62.4383L62.4379 59.4205C63.4381 58.4202 64 57.0636 64 55.6491C64 54.2345 63.4381 52.8779 62.4379 51.8776ZM23.4669 26.2226V18.572L25.6002 16.4386V24.0892L23.4669 26.2226ZM16.4418 14.9302H24.092L21.9586 17.0637H14.3084L16.4418 14.9302ZM57.1589 49.6151L49.6165 57.158L48.1071 55.6485L55.6496 48.1067L57.1589 49.6151ZM39.6654 36.6457L45.8458 42.8264L42.8292 45.8431L36.6425 39.656C37.7435 38.7513 38.7554 37.7433 39.6644 36.6457H39.6654ZM44.3364 47.3525L47.3551 44.3347C47.9647 43.7529 48.7749 43.4283 49.6175 43.4283C50.4602 43.4283 51.2704 43.7529 51.88 44.3347L54.1434 46.5984L46.5999 54.1412L44.3364 51.8776C43.7379 51.2768 43.4018 50.4634 43.4016 49.6153C43.4014 48.7672 43.7371 47.9536 44.3354 47.3525H44.3364Z" fill="#D31218"/>
<path d="M12.2668 57.5996H11.7334V57.3201C13.038 56.4117 14.0186 55.1106 14.5325 53.6063C15.0464 52.102 15.0668 50.4729 14.5908 48.9561C14.1148 47.4393 13.1672 46.1141 11.8858 45.1732C10.6045 44.2324 9.05636 43.725 7.46674 43.725C5.87711 43.725 4.32897 44.2324 3.04764 45.1732C1.76631 46.1141 0.818672 47.4393 0.342649 48.9561C-0.133375 50.4729 -0.112937 52.102 0.400988 53.6063C0.914913 55.1106 1.8955 56.4117 3.20003 57.3201V57.5996H2.66669C2.38379 57.5996 2.11248 57.712 1.91244 57.912C1.7124 58.1121 1.60002 58.3834 1.60002 58.6663C1.60002 58.9492 1.7124 59.2206 1.91244 59.4206C2.11248 59.6207 2.38379 59.7331 2.66669 59.7331H3.20003C3.20003 60.8647 3.64956 61.95 4.44972 62.7502C5.24988 63.5504 6.33514 64 7.46674 64C8.59834 64 9.68359 63.5504 10.4838 62.7502C11.2839 61.95 11.7334 60.8647 11.7334 59.7331H12.2668C12.5497 59.7331 12.821 59.6207 13.021 59.4206C13.2211 59.2206 13.3335 58.9492 13.3335 58.6663C13.3335 58.3834 13.2211 58.1121 13.021 57.912C12.821 57.712 12.5497 57.5996 12.2668 57.5996ZM4.80005 55.8139C3.78328 55.2268 2.98863 54.3206 2.53933 53.2359C2.09004 52.1511 2.01122 50.9484 2.31508 49.8143C2.61895 48.6802 3.28853 47.678 4.21998 46.9633C5.15142 46.2485 6.29268 45.8611 7.46674 45.8611C8.6408 45.8611 9.78205 46.2485 10.7135 46.9633C11.6449 47.678 12.3145 48.6802 12.6184 49.8143C12.9223 50.9484 12.8434 52.1511 12.3941 53.2359C11.9448 54.3206 11.1502 55.2268 10.1334 55.8139C9.97143 55.9074 9.83688 56.0419 9.74327 56.2039C9.64966 56.3658 9.60028 56.5495 9.60009 56.7366V57.5996H8.53341V53.7743L10.3542 51.9534C10.5485 51.7522 10.656 51.4827 10.6536 51.203C10.6512 50.9233 10.539 50.6558 10.3412 50.458C10.1435 50.2602 9.87593 50.148 9.59625 50.1456C9.31657 50.1432 9.04713 50.2507 8.84595 50.445L7.46674 51.8243L6.08752 50.445C5.88635 50.2507 5.6169 50.1432 5.33722 50.1456C5.05754 50.148 4.79001 50.2602 4.59224 50.458C4.39447 50.6558 4.28228 50.9233 4.27985 51.203C4.27742 51.4827 4.38494 51.7522 4.57924 51.9534L6.40006 53.7743V57.5996H5.33338V56.7366C5.33319 56.5495 5.28381 56.3658 5.1902 56.2039C5.09659 56.0419 4.96204 55.9074 4.80005 55.8139ZM7.46674 61.8665C6.90094 61.8665 6.35831 61.6418 5.95823 61.2416C5.55815 60.8415 5.33338 60.2989 5.33338 59.7331H9.60009C9.60009 60.2989 9.37533 60.8415 8.97525 61.2416C8.57516 61.6418 8.03254 61.8665 7.46674 61.8665Z" fill="#D31218"/>
<path d="M34.1337 49.0657H25.6002C25.3173 49.0657 25.046 49.1781 24.846 49.3781C24.6459 49.5782 24.5336 49.8495 24.5336 50.1324V54.3994C24.5336 54.6823 24.6459 54.9536 24.846 55.1537C25.046 55.3537 25.3173 55.4661 25.6002 55.4661H34.1337C34.4166 55.4661 34.6879 55.3537 34.8879 55.1537C35.088 54.9536 35.2003 54.6823 35.2003 54.3994V50.1324C35.2003 49.8495 35.088 49.5782 34.8879 49.3781C34.6879 49.1781 34.4166 49.0657 34.1337 49.0657ZM33.067 53.3326H26.6669V51.1992H33.067V53.3326Z" fill="#D31218"/>
<path d="M30.9336 57.5996H25.6002C25.3173 57.5996 25.046 57.712 24.846 57.912C24.6459 58.1121 24.5336 58.3834 24.5336 58.6663C24.5336 58.9492 24.6459 59.2206 24.846 59.4206C25.046 59.6207 25.3173 59.7331 25.6002 59.7331H30.9336C31.2165 59.7331 31.4878 59.6207 31.6879 59.4206C31.8879 59.2206 32.0003 58.9492 32.0003 58.6663C32.0003 58.3834 31.8879 58.1121 31.6879 57.912C31.4878 57.712 31.2165 57.5996 30.9336 57.5996Z" fill="#D31218"/>
<path d="M32.427 20.8292C32.2628 20.9818 32.1508 21.1822 32.107 21.4021L30.5976 28.945C30.5632 29.1171 30.5717 29.2951 30.6225 29.4632C30.6734 29.6312 30.7649 29.7841 30.889 29.9083C31.0131 30.0325 31.1659 30.1242 31.3339 30.1751C31.5019 30.2261 31.6799 30.2348 31.852 30.2005L39.3956 28.6911C39.6154 28.6472 39.8158 28.5353 39.9684 28.3711L52.9072 14.3968C53.005 14.2946 53.0815 14.1738 53.1322 14.0417C53.1829 13.9096 53.2069 13.7687 53.2026 13.6272C53.1983 13.4858 53.1659 13.3466 53.1073 13.2178C53.0488 13.0889 52.9651 12.973 52.8613 12.8769C52.7575 12.7807 52.6356 12.7061 52.5026 12.6575C52.3697 12.6089 52.2285 12.5873 52.0871 12.5938C51.9457 12.6004 51.8071 12.635 51.6792 12.6956C51.5514 12.7563 51.4368 12.8418 51.3424 12.9471L39.1566 26.1085L37.6772 24.6289L39.1854 23.1206C39.3797 22.9194 39.4873 22.6499 39.4848 22.3702C39.4824 22.0905 39.3702 21.823 39.1724 21.6252C38.9747 21.4274 38.7071 21.3152 38.4275 21.3128C38.1478 21.3104 37.8783 21.4179 37.6772 21.6122L36.1689 23.1206L34.6905 21.641L53.4885 4.23511L56.5819 7.32864L54.2448 9.80986C54.1429 9.91124 54.0625 10.0322 54.0085 10.1654C53.9545 10.2986 53.928 10.4414 53.9305 10.5851C53.9331 10.7289 53.9647 10.8706 54.0234 11.0018C54.0821 11.133 54.1667 11.251 54.2722 11.3487C54.3776 11.4464 54.5017 11.5218 54.637 11.5703C54.7723 11.6188 54.9161 11.6395 55.0596 11.6311C55.2031 11.6226 55.3434 11.5853 55.4721 11.5213C55.6008 11.4572 55.7152 11.3679 55.8085 11.2585L58.7952 8.03162L59.5494 7.27637C60.3492 6.4762 60.7986 5.39108 60.7986 4.25964C60.7986 3.1282 60.3492 2.04309 59.5494 1.24292C58.737 0.466445 57.6565 0.0331274 56.5328 0.0331274C55.4091 0.0331274 54.3286 0.466445 53.5162 1.24292L52.7845 1.9747L32.427 20.8292ZM33.8073 23.7756L37.0222 26.9907L33.003 27.795L33.8073 23.7756ZM58.0421 2.75448C58.4421 3.15456 58.6668 3.69712 58.6668 4.26284C58.6668 4.82856 58.4421 5.37112 58.0421 5.77121L55.0256 2.75448C55.4318 2.36637 55.972 2.14979 56.5339 2.14979C57.0957 2.14979 57.6359 2.36637 58.0421 2.75448Z" fill="#D31218"/>
</svg>
