<svg width="20" height="20" viewBox="0 0 65 64" fill="none" xmlns="http://www.w3.org/2000/svg">
<path d="M16.3647 26.4389C16.1419 27.1279 16.3258 27.8841 16.8397 28.3924L23.2425 34.7245L21.7697 43.6263C21.6515 44.3409 21.9454 45.0612 22.529 45.4869C23.1126 45.9126 23.8856 45.9707 24.5257 45.637L32.4999 41.4794L40.4742 45.637C40.7504 45.781 41.0516 45.852 41.3514 45.852C41.7462 45.852 42.1391 45.7289 42.4709 45.4868C43.0545 45.0611 43.3484 44.3408 43.2302 43.6262L41.7574 34.7244L48.1602 28.3923C48.6741 27.884 48.8581 27.1277 48.6351 26.4388C48.4122 25.7498 47.8209 25.2465 47.1075 25.1386L38.2224 23.7952L34.2033 15.7228C33.8807 15.0749 33.2213 14.6657 32.4999 14.6657C31.7786 14.6657 31.1193 15.0749 30.7966 15.7228L26.7775 23.7952L17.8924 25.1386C17.179 25.2466 16.5877 25.7499 16.3647 26.4389ZM28.3222 27.4295C28.9351 27.3368 29.4648 26.9504 29.7419 26.3936L32.4999 20.8541L35.258 26.3936C35.5352 26.9504 36.0648 27.3368 36.6777 27.4295L42.7739 28.3512L38.3807 32.6961C37.9391 33.1328 37.7368 33.758 37.8384 34.372L38.8489 40.4802L33.3774 37.6275C33.1023 37.484 32.8012 37.4124 32.4999 37.4124C32.1987 37.4124 31.8976 37.4842 31.6225 37.6275L26.151 40.4802L27.1615 34.372C27.2631 33.758 27.0607 33.1328 26.6192 32.6961L22.226 28.3512L28.3222 27.4295Z" fill="#D31218"/>
<path d="M63.5812 36.8288C63.4027 36.7815 60.1817 35.9519 56.7866 36.6181C57.0862 35.1541 57.2514 33.6805 57.2844 32.2126C59.1918 31.3694 62.4556 29.5377 63.9956 26.3896C66.2002 21.8825 64.0832 16.5048 63.992 16.2782C63.6209 15.3558 62.6075 14.8731 61.6618 15.1681C61.4471 15.235 56.9341 16.6768 54.3857 20.1235C53.6471 18.7452 52.7703 17.4211 51.7575 16.169C52.5601 14.3357 53.6877 10.8627 52.631 7.48842C51.1308 2.69828 45.9039 0.271903 45.6821 0.170932C44.7983 -0.231424 43.7541 0.0982629 43.2586 0.936376C43.1343 1.14661 40.2314 6.14074 41.7316 10.9309C43.0578 15.1652 47.295 17.552 48.414 18.1187C60.0352 31.7168 50.3499 52.829 32.5001 52.829C14.603 52.829 4.87282 31.6099 16.6971 17.9902C18.0616 17.2768 21.9365 14.9486 23.2161 10.9504C24.7459 6.16967 21.8741 1.15757 21.7511 0.946575C21.2608 0.105402 20.2189 -0.230914 19.3322 0.16596C19.1098 0.265529 13.8681 2.65926 12.3382 7.43998C11.242 10.8659 12.4059 14.4099 13.1991 16.2216C12.2062 17.4537 11.3391 18.7587 10.6049 20.1214C8.03633 16.6891 3.48891 15.4233 3.27259 15.3648C2.34355 15.1137 1.37351 15.598 1.01234 16.4937C0.920931 16.7204 -1.20018 22.0964 1.00091 26.6052C2.53462 29.7469 5.77519 31.4768 7.70359 32.2653C7.74116 33.7355 7.91077 35.2034 8.20886 36.6522C4.82445 35.9728 1.60888 36.7797 1.43026 36.8258C0.43991 37.0817 -0.172505 38.0774 0.0431859 39.0812C0.0962517 39.3284 1.39294 45.1644 5.65243 47.7414C7.51392 48.8678 9.60786 49.1912 11.4003 49.1912C12.6341 49.1912 13.7247 49.0379 14.4979 48.8873C15.3697 49.8241 16.3077 50.6861 17.3042 51.4674C16.4102 51.7427 15.5199 52.142 14.689 52.7102C10.5559 55.5366 9.75322 61.2628 9.72111 61.5053C9.59288 62.4715 10.209 63.3799 11.1512 63.6141C11.2679 63.6432 12.6915 63.9861 14.6005 63.9861C16.5586 63.9861 19.0276 63.6251 21.1201 62.1939C23.644 60.4678 24.9259 57.6606 25.5488 55.681C27.7606 56.3183 30.0936 56.6537 32.4999 56.6537C34.8732 56.6537 37.1751 56.3271 39.3595 55.7062C39.9915 57.6836 41.3071 60.5536 43.9019 62.2836C45.9448 63.6458 48.3288 64 50.2557 64C52.258 64 53.7668 63.6175 53.8869 63.5863C54.8263 63.341 55.4316 62.4254 55.2922 61.4608C55.2573 61.2188 54.3877 55.5025 50.222 52.7249C49.3925 52.1718 48.5069 51.7854 47.6184 51.5209C48.6586 50.7107 49.6359 49.813 50.5408 48.8342C51.3371 48.993 52.4183 49.1462 53.6336 49.1462C55.4012 49.1462 57.4483 48.8219 59.2967 47.7191C63.5728 45.1679 64.9003 39.338 64.9547 39.0911C65.1754 38.089 64.5693 37.0906 63.5812 36.8288ZM18.9763 59.0328C17.4327 60.0884 15.4205 60.227 13.9651 60.1483C14.4271 58.7579 15.294 56.9237 16.8326 55.8716C18.3763 54.8158 20.3889 54.6776 21.8437 54.7559C21.3818 56.1463 20.5148 57.9806 18.9763 59.0328ZM15.9641 8.6102C16.5359 6.82331 18.0404 5.47116 19.2361 4.63522C19.7235 6.01516 20.1616 7.99392 19.59 9.78029C19.0187 11.5655 17.5165 12.9169 16.3201 13.7535C15.8336 12.3716 15.3947 10.3898 15.9641 8.6102ZM4.42049 24.9215C3.59073 23.2221 3.74954 21.1804 4.03785 19.7431C5.41325 20.3926 7.22891 21.5264 8.06451 23.2379C8.32768 23.7772 8.50706 24.3913 8.60025 25.0666C8.31346 26.0826 8.09371 27.1175 7.94315 28.1664C6.56394 27.4347 5.11605 26.3462 4.42049 24.9215ZM7.61777 44.4655C6.01538 43.4961 4.99723 41.6602 4.413 40.2383C5.92245 40.1318 7.98694 40.2237 9.58324 41.1895C9.58831 41.1926 9.59327 41.196 9.59822 41.1991C9.6895 41.4214 9.78319 41.643 9.88094 41.8633C10.4272 43.0947 11.0583 44.2626 11.7645 45.3628C10.4507 45.4081 8.89693 45.2393 7.61777 44.4655ZM51.0342 60.151C49.5778 60.2458 47.559 60.1313 46.0085 59.0974C44.4526 58.0599 43.5657 56.2401 43.0893 54.8575C44.5463 54.7628 46.5646 54.877 48.1152 55.9111C49.6708 56.9485 50.5576 58.7675 51.0342 60.151ZM56.9341 23.234C57.779 21.5067 59.5893 20.3064 60.9751 19.5982C61.2523 21.034 61.391 23.0393 60.577 24.7033C59.873 26.1425 58.4159 27.2854 57.0245 28.0746C56.8755 27.0732 56.6638 26.0814 56.3905 25.1044C56.4825 24.4123 56.6649 23.7843 56.9341 23.234ZM45.3646 9.78348C44.8039 7.99315 45.2545 6.01669 45.75 4.6407C46.9415 5.48468 48.4371 6.84601 48.9977 8.63595C49.5583 10.4259 49.108 12.4017 48.612 13.7786C47.4206 12.9346 45.9252 11.5734 45.3646 9.78348ZM57.3514 44.4309C56.0812 45.1887 54.5557 45.3551 53.2573 45.3084C53.9464 44.2282 54.5633 43.083 55.0986 41.8767C55.2072 41.6319 55.3109 41.3862 55.4113 41.1398C57.0196 40.1829 59.0745 40.1028 60.5767 40.2193C59.9826 41.6405 58.9528 43.4757 57.3514 44.4309Z" fill="#D31218"/>
</svg>
