<svg width="48" height="64" viewBox="0 0 48 64" fill="none" xmlns="http://www.w3.org/2000/svg">
<path d="M24.0001 64C23.7013 64 23.4005 63.9336 23.1251 63.7969C10.4726 57.6366 0 50.9881 0 31.9995V9.99923C0 9.15743 0.52535 8.40737 1.3164 8.1203L23.3164 0.120104C23.7578 -0.0400347 24.2422 -0.0400347 24.6836 0.120104L46.6836 8.12019C47.4746 8.40725 48 9.15732 48 9.99912V31.9994C48 50.988 37.5274 57.6365 24.8749 63.7968C24.5996 63.9336 24.2988 64 24.0001 64ZM4.00005 11.3996V31.9995C4.00005 46.9197 10.7344 53.1873 24.0001 59.7695C37.2657 53.1873 44.0001 46.9197 44.0001 31.9995V11.3996L24.0001 4.12798L4.00005 11.3996Z" fill="#D31218"/>
<path d="M22.586 39.9995L13.172 30.5854L16.0001 27.7572L22.586 34.3432L35.1719 21.7571L38 24.5852L22.586 39.9995Z" fill="#D31218"/>
</svg>
