<svg width="28" height="26" viewBox="0 0 28 26" fill="none" xmlns="http://www.w3.org/2000/svg">
<path d="M26.4156 3H16.9954V5.984H20.1118V8.015H16.9954V10H20.08V12H16.9954V14H20.08V16H16.9954V18H20.08V20H16.9954V23H26.4156C26.8896 23 27.2772 22.609 27.2772 22.13V3.87C27.2772 3.391 26.8896 3 26.4156 3ZM25.2209 20H21.1081V18H25.2209V20ZM25.2209 16H21.1081V14H25.2209V16ZM25.2209 12H21.1081V10H25.2209V12ZM25.2209 8H21.1081V6H25.2209V8Z" fill="white"/>
<path d="M0.544556 2.889V23.112L15.9673 26V0L0.544556 2.889ZM10.2999 18.08L8.50575 14.781C8.43789 14.658 8.36797 14.432 8.29497 14.103H8.26721C8.23328 14.258 8.15309 14.494 8.02662 14.81L6.22628 18.08H3.43066L6.74962 13.016L3.71341 7.951H6.56763L8.05644 10.988C8.17262 11.228 8.27647 11.513 8.369 11.842H8.39779C8.4564 11.644 8.56538 11.35 8.72475 10.959L10.3801 7.95H12.9938L9.87117 12.972L13.0812 18.079L10.2999 18.08Z" fill="white"/>
</svg>
