<svg width="64" height="64" viewBox="0 0 64 64" fill="none" xmlns="http://www.w3.org/2000/svg">
<path d="M32.9333 4.09771H30.8797V6.15288H32.9333V4.09771Z" fill="#D31218"/>
<path d="M32.9333 57.658H30.8797V59.7132H32.9333V57.658Z" fill="#D31218"/>
<path d="M52.2743 12.9641L50.8222 11.5109L49.3701 12.9641L50.8222 14.4173L52.2743 12.9641Z" fill="#D31218"/>
<path d="M11.5287 50.8418L12.9808 52.295L14.4329 50.8418L12.9808 49.3886L11.5287 50.8418Z" fill="#D31218"/>
<path d="M59.6805 30.8779H57.6269V32.933H59.6805V30.8779Z" fill="#D31218"/>
<path d="M6.17341 30.8779H4.11981V32.933H6.17341V30.8779Z" fill="#D31218"/>
<path d="M14.4388 12.9691L12.9867 11.5159L11.5346 12.9691L12.9867 14.4223L14.4388 12.9691Z" fill="#D31218"/>
<path d="M63.9893 56.0946C63.8759 53.9764 62.8554 51.9968 61.205 50.673L54.9308 45.4909L55.145 45.1883C56.1403 43.4358 56.9466 41.5823 57.5261 39.6533L63.8129 39.0229V24.8006L57.5261 24.1702C57.0096 22.4807 56.3292 20.829 55.4977 19.2656L59.5041 14.3735L49.4503 4.31206L44.562 8.32151C42.9997 7.47675 41.3493 6.7959 39.661 6.29157L39.0311 0H24.7944L24.1645 6.29157C22.4763 6.80851 20.8258 7.48936 19.2636 8.32151L14.3626 4.29945L4.30879 14.3609L8.32781 19.253C7.48369 20.829 6.80335 22.4681 6.2868 24.1702L0 24.8006V39.0229L6.2868 39.6533C6.80335 41.3554 7.48369 42.9945 8.32781 44.5579L4.32139 49.45L14.3752 59.5114L19.2636 55.502C20.8258 56.3467 22.4763 57.0276 24.1645 57.5445L24.7944 63.8361H39.0059L39.6358 57.5445C41.5634 56.9645 43.4281 56.1576 45.2423 55.1111L45.5195 54.922L50.6976 61.1883C52.0205 62.8526 53.9985 63.8739 56.1151 63.9874C56.2537 64 56.3922 64 56.5308 64C58.5088 64 60.4113 63.2183 61.8223 61.8061C63.309 60.3058 64.1027 58.2254 63.9893 56.0946ZM44.1462 53.3712C42.3446 54.405 40.417 55.1994 38.4137 55.7541L37.7334 55.9433L37.1539 61.7809H26.6717L26.0795 55.9433L25.3992 55.7541C23.396 55.212 21.4684 54.405 19.6667 53.3712L19.0494 53.0181L14.5138 56.7376L7.09313 49.3113L10.8098 44.7723L10.457 44.1544C9.4239 42.3515 8.63018 40.4224 8.07583 38.4177L7.88685 37.7368L2.0536 37.1568V26.6667L7.88685 26.0867L8.07583 25.4058C8.61758 23.4011 9.4239 21.472 10.457 19.669L10.8098 19.0512L7.09313 14.5122L14.5138 7.08589L19.0494 10.8054L19.6667 10.4523C21.4684 9.41844 23.396 8.6115 25.3992 8.06935L26.0795 7.88022L26.6591 2.04255H37.1413L37.7208 7.88022L38.4011 8.06935C40.4044 8.6115 42.332 9.41844 44.1336 10.4523L44.7509 10.8054L49.2865 7.08589L56.7072 14.5122L52.9906 19.0512L53.3433 19.669C54.3764 21.472 55.1828 23.4137 55.7245 25.4058L55.9135 26.0867L61.7467 26.6667V37.1568L55.9135 37.7368L55.7245 38.4177C55.1828 40.4224 54.3764 42.3515 53.3937 44.0914L53.3433 44.1671L49.2991 40.8132C50.7102 38.052 51.4661 34.9882 51.4661 31.8991C51.4661 21.1064 42.6973 12.331 31.9128 12.331C21.1282 12.331 12.3594 21.1064 12.3594 31.8991C12.3594 42.6919 21.1282 51.4673 31.9128 51.4673C35.0247 51.4673 38.0988 50.7108 40.8705 49.2734L44.2218 53.3207L44.1462 53.3712ZM43.5667 31.2183C43.5541 31.1426 43.5541 31.0796 43.5415 31.0039C43.4911 30.5626 43.4155 30.134 43.3147 29.6927C43.3021 29.617 43.2769 29.554 43.2643 29.4783C43.1509 29.0496 43.0249 28.621 42.8611 28.2049C42.8359 28.1418 42.8107 28.0788 42.7855 28.0158C42.6217 27.5997 42.4202 27.1836 42.206 26.7801C42.1808 26.7297 42.1556 26.6793 42.1178 26.6414C41.891 26.238 41.6264 25.8345 41.3493 25.4563C41.3241 25.431 41.3115 25.4058 41.2863 25.3806C40.9839 24.9898 40.6563 24.6115 40.3036 24.2459C37.4562 21.3964 33.2734 20.2742 29.3804 21.3207L27.6544 21.7872L34.7097 28.8479L32.8829 33.0339L28.9017 34.6982L21.8337 27.6249L21.3802 29.3522C20.3471 33.2608 21.4684 37.4468 24.3031 40.2837C24.5677 40.5485 24.8448 40.788 25.1346 41.0402C27.3394 42.8558 30.1363 43.7258 32.9333 43.5745C33.4876 43.5366 34.0546 43.4484 34.6089 43.3349C34.9743 43.2593 35.3522 43.171 35.7176 43.0575L39.5224 47.6596C37.1539 48.8069 34.5459 49.4121 31.9128 49.4121C22.2621 49.4121 14.413 41.5571 14.413 31.8991C14.413 22.2411 22.2621 14.3861 31.9128 14.3861C41.5634 14.3861 49.4125 22.2411 49.4125 31.8991C49.4125 34.5091 48.8204 37.1064 47.6865 39.4641L43.0879 35.6942C43.0879 35.6816 43.0879 35.669 43.1005 35.669C43.2391 35.2151 43.3525 34.7486 43.4407 34.2821C43.4533 34.2317 43.4659 34.1686 43.4659 34.1182C43.5415 33.6643 43.5793 33.2104 43.6045 32.7565C43.6045 32.6935 43.6171 32.6178 43.6171 32.5548C43.6297 32.1135 43.6171 31.6596 43.5667 31.2183ZM60.3609 60.3436C59.2774 61.4279 57.7655 62.0079 56.2285 61.9196C54.6914 61.8314 53.2551 61.1001 52.285 59.8771L36.3727 40.6115L35.6798 40.8763C32.5427 42.0993 29.0024 41.5445 26.4575 39.4389C26.2181 39.2372 25.9787 39.0229 25.7646 38.8085C25.1346 38.1781 24.6181 37.4594 24.2023 36.6903C23.3834 35.1899 22.9928 33.4752 23.081 31.7604L28.4355 37.119L34.4451 34.6099L37.1791 28.394L31.812 23.0229C34.4199 22.8842 36.9901 23.8424 38.8673 25.7084C41.4627 28.3057 42.269 32.2017 40.9335 35.6438L40.6689 36.3373L59.9325 52.2742C61.1294 53.2325 61.8727 54.6698 61.9609 56.208C62.0239 57.7463 61.4444 59.2593 60.3609 60.3436Z" fill="#D31218"/>
<path d="M56.5434 53.3459C54.7922 53.3459 53.3559 54.7707 53.3559 56.5359C53.3559 58.301 54.7796 59.7258 56.5434 59.7258C58.2947 59.7258 59.7309 58.301 59.7309 56.5359C59.7309 54.7707 58.3073 53.3459 56.5434 53.3459ZM56.5434 57.658C55.9261 57.658 55.4221 57.1537 55.4221 56.5359C55.4221 55.918 55.9261 55.4137 56.5434 55.4137C57.1608 55.4137 57.6647 55.918 57.6647 56.5359C57.6647 57.1537 57.1608 57.658 56.5434 57.658Z" fill="#D31218"/>
</svg>
